<svg width="18" height="18" viewBox="0 0 18 18" fill="none" xmlns="http://www.w3.org/2000/svg">
<path d="M7.03664 4.69801C5.38564 6.55901 3.51364 9.24401 1.89564 12.482C1.77696 12.7194 1.56884 12.8999 1.31707 12.9838C1.0653 13.0677 0.79051 13.0482 0.553141 12.9295C0.315772 12.8108 0.135273 12.6027 0.0513505 12.3509C-0.032572 12.0992 -0.0130431 11.8244 0.105641 11.587C1.79764 8.20401 3.76564 5.37201 5.53964 3.37101C6.42564 2.37201 7.27964 1.56101 8.04564 0.991009C8.42764 0.706009 8.80564 0.468009 9.16864 0.298009C9.51964 0.132009 9.92164 8.70378e-06 10.3346 8.70378e-06C10.5666 -0.000860153 10.7941 0.0633376 10.9914 0.185309C11.1887 0.30728 11.3478 0.482135 11.4506 0.690009C11.6076 1.00201 11.6246 1.33501 11.6206 1.56001C11.6126 2.03701 11.4856 2.63301 11.3226 3.24001C10.9876 4.48301 10.3996 6.13101 9.81564 7.75801L9.73364 7.98601C9.16764 9.56001 8.61064 11.109 8.24864 12.346C8.15131 12.68 8.07164 12.9783 8.00964 13.241C8.70364 12.684 9.55964 11.845 10.4666 10.953L10.4966 10.924C11.3776 10.058 12.3106 9.14201 13.0966 8.51301C13.4876 8.20101 13.9086 7.90401 14.3146 7.73301C14.6546 7.58801 15.4346 7.35301 16.0416 7.96001C16.4256 8.34401 16.5316 8.84401 16.5596 9.21601C16.5896 9.60601 16.5436 10.026 16.4726 10.426C16.3326 11.226 16.0486 12.159 15.7896 13.001L15.7486 13.136C15.5166 13.887 15.3106 14.558 15.1936 15.096C15.4536 14.836 15.7736 14.422 16.1476 13.811C16.2163 13.699 16.3063 13.6016 16.4125 13.5244C16.5188 13.4471 16.6392 13.3916 16.7669 13.3609C16.8947 13.3302 17.0272 13.325 17.1569 13.3455C17.2867 13.366 17.4111 13.4119 17.5231 13.4805C17.6352 13.5491 17.7326 13.6391 17.8098 13.7454C17.887 13.8517 17.9426 13.9721 17.9733 14.0998C18.004 14.2275 18.0092 14.3601 17.9887 14.4898C17.9681 14.6196 17.9223 14.744 17.8536 14.856C17.3106 15.742 16.7486 16.462 16.1526 16.909C15.5286 17.377 14.7126 17.641 13.8866 17.228C13.2786 16.923 13.1406 16.318 13.1096 15.982C13.0766 15.619 13.1296 15.223 13.1986 14.867C13.3286 14.194 13.5836 13.37 13.8236 12.591L13.8786 12.413C14.1456 11.545 14.3886 10.734 14.5036 10.079L14.5276 9.93401L14.3466 10.074C13.6486 10.633 12.7856 11.479 11.8686 12.38L11.8386 12.41C10.9576 13.275 10.0246 14.192 9.23864 14.82C8.84764 15.133 8.42664 15.43 8.02064 15.601C7.68064 15.746 6.90064 15.981 6.29364 15.374C5.98464 15.065 5.90564 14.675 5.88064 14.438C5.85746 14.1703 5.86518 13.9009 5.90364 13.635C5.97164 13.107 6.12964 12.465 6.32964 11.785C6.70964 10.487 7.28464 8.88501 7.84164 7.33601L7.93364 7.08101C8.52664 5.42901 9.08264 3.86701 9.39064 2.72101L9.46464 2.43501C9.38893 2.48687 9.31425 2.54021 9.24064 2.59501C8.61764 3.05901 7.86364 3.76501 7.03664 4.69801Z" fill="white"/>
</svg>
