<svg width="24" height="24" viewBox="0 0 24 24" fill="none" xmlns="http://www.w3.org/2000/svg">
<path fill-rule="evenodd" clip-rule="evenodd" d="M18.5 18.946C18.34 18.9873 18.1733 19.0083 18 19.009H5.5V20.5H18C18.1326 20.5 18.2598 20.4473 18.3536 20.3536C18.4473 20.2598 18.5 20.1326 18.5 20V18.946ZM4 2H18C18.5304 2 19.0391 2.21071 19.4142 2.58579C19.7893 2.96086 20 3.46957 20 4V20C20 20.5304 19.7893 21.0391 19.4142 21.4142C19.0391 21.7893 18.5304 22 18 22H4V2ZM7 3.5V17.5H8.5V3.5H7Z" fill="white"/>
</svg>
