<svg width="20" height="20" viewBox="0 0 20 20" fill="none" xmlns="http://www.w3.org/2000/svg">
<path fill-rule="evenodd" clip-rule="evenodd" d="M10 0C15.523 0 20 4.477 20 10C20 15.523 15.523 20 10 20C4.477 20 0 15.523 0 10C0 4.477 4.477 0 10 0ZM12.153 13H7.847L7.104 17.46C8.02758 17.8177 9.00956 18.0008 10 18C10.894 18 11.753 17.853 12.556 17.583L12.896 17.46L12.153 13ZM10 2C8.31567 1.99971 6.67422 2.53104 5.30955 3.51828C3.94489 4.50552 2.92663 5.8983 2.39989 7.49815C1.87315 9.09799 1.86479 10.8233 2.37602 12.4281C2.88724 14.033 3.89196 15.4356 5.247 16.436L5.874 12.671C5.92735 12.351 6.05772 12.0488 6.25389 11.7905C6.45005 11.5321 6.70612 11.3253 7 11.188V8.006C7 7.624 7.216 7.274 7.558 7.103L11.538 5.113C11.692 5.03595 11.8631 4.99954 12.0351 5.00722C12.2071 5.01491 12.3743 5.06643 12.5207 5.15691C12.6672 5.24738 12.7882 5.3738 12.872 5.52416C12.9559 5.67452 13 5.84383 13 6.016V11.188C13.2939 11.3253 13.5499 11.5321 13.7461 11.7905C13.9423 12.0488 14.0727 12.351 14.126 12.671L14.753 16.436C16.108 15.4356 17.1128 14.033 17.624 12.4281C18.1352 10.8233 18.1269 9.09799 17.6001 7.49815C17.0734 5.8983 16.0551 4.50552 14.6904 3.51828C13.3258 2.53104 11.6843 1.99971 10 2ZM11 7.618L9 8.618V11H11V7.618Z" fill="white"/>
</svg>
