<svg width="24" height="24" viewBox="0 0 24 24" fill="none" xmlns="http://www.w3.org/2000/svg">
<path fill-rule="evenodd" clip-rule="evenodd" d="M11.9994 4.61523C12.081 4.61519 12.1611 4.63678 12.2317 4.67781C12.3022 4.71883 12.3606 4.77782 12.4009 4.84877L14.6394 8.794L19.0194 9.73831C19.0982 9.75518 19.1712 9.7924 19.2312 9.84625C19.2911 9.90011 19.3359 9.96872 19.3611 10.0453C19.3863 10.1218 19.3911 10.2036 19.3748 10.2826C19.3586 10.3615 19.322 10.4348 19.2686 10.4952L16.2658 13.8802L16.7366 18.4134C16.7449 18.4941 16.7318 18.5756 16.6986 18.6496C16.6654 18.7236 16.6133 18.7876 16.5475 18.835C16.4817 18.8825 16.4045 18.9118 16.3238 18.9199C16.2431 18.928 16.1616 18.9148 16.0877 18.8814L11.9994 17.0288L7.91106 18.8814C7.83707 18.915 7.75552 18.9284 7.67466 18.9204C7.5938 18.9124 7.5165 18.8831 7.45056 18.8357C7.38462 18.7882 7.33239 18.7241 7.29914 18.65C7.26589 18.5758 7.25281 18.4942 7.26122 18.4134L7.73198 13.8811L4.73106 10.4952C4.6777 10.4349 4.64105 10.3617 4.62477 10.2828C4.60848 10.2039 4.61312 10.1221 4.63823 10.0456C4.66333 9.96906 4.70803 9.90043 4.76788 9.84652C4.82773 9.79262 4.90064 9.75531 4.97937 9.73831L9.35937 8.794L11.5978 4.84877C11.6381 4.77782 11.6965 4.71883 11.7671 4.67781C11.8376 4.63678 11.9178 4.61519 11.9994 4.61523ZM11.9994 6.01185L10.0609 9.42908C10.0288 9.48569 9.985 9.53486 9.9325 9.57336C9.88 9.61186 9.81995 9.63882 9.75629 9.65246L5.94583 10.474L8.55814 13.4195C8.60063 13.4675 8.63268 13.5238 8.65222 13.5848C8.67177 13.6458 8.6784 13.7103 8.67168 13.774L8.26275 17.7091L11.8092 16.1029C11.869 16.0759 11.9338 16.0619 11.9994 16.0619C12.0649 16.0619 12.1298 16.0759 12.1895 16.1029L15.736 17.7091L15.3271 13.774C15.3203 13.7103 15.327 13.6458 15.3465 13.5848C15.3661 13.5238 15.3981 13.4675 15.4406 13.4195L18.0529 10.474L14.2424 9.65246C14.1788 9.63882 14.1187 9.61186 14.0662 9.57336C14.0137 9.53486 13.97 9.48569 13.9378 9.42908L11.9994 6.01185Z" fill="white"/>
<path fill-rule="evenodd" clip-rule="evenodd" d="M11.9994 22.6148C17.8619 22.6148 22.6148 17.8619 22.6148 11.9994C22.6148 6.13694 17.8619 1.38401 11.9994 1.38401C6.13694 1.38401 1.38401 6.13694 1.38401 11.9994C1.38401 17.8619 6.13694 22.6148 11.9994 22.6148ZM11.9994 23.5379C18.3723 23.5379 23.5379 18.3723 23.5379 11.9994C23.5379 5.62648 18.3723 0.460938 11.9994 0.460938C5.62648 0.460938 0.460938 5.62648 0.460938 11.9994C0.460938 18.3723 5.62648 23.5379 11.9994 23.5379Z" fill="white"/>
</svg>
