<svg width="22" height="22" viewBox="0 0 22 22" fill="none" xmlns="http://www.w3.org/2000/svg">
<path d="M21 11C21 5.477 16.523 1 11 1C5.477 1 1 5.477 1 11C1 16.523 5.477 21 11 21" stroke="white" stroke-width="1.5" stroke-linecap="round" stroke-linejoin="round"/>
<path d="M12.0009 1.05078C12.0009 1.05078 15.0009 5.00078 15.0009 11.0008M10.0009 20.9508C10.0009 20.9508 7.00086 17.0008 7.00086 11.0008C7.00086 5.00078 10.0009 1.05078 10.0009 1.05078M1.63086 14.5008H11.0009M1.63086 7.50078H20.3709" stroke="white" stroke-width="1.5" stroke-linecap="round" stroke-linejoin="round"/>
<path d="M20.8792 16.9176C21.3732 17.2216 21.3422 17.9606 20.8342 18.0186L18.2672 18.3096L17.1162 20.6216C16.8882 21.0806 16.1832 20.8556 16.0662 20.2876L14.8112 14.1716C14.7122 13.6916 15.1442 13.3896 15.5612 13.6466L20.8792 16.9176Z" stroke="white" stroke-width="1.5"/>
</svg>
